<svg xmlns="http://www.w3.org/2000/svg" width="1100" height="680" viewBox="0 0 1100 680">
<rect width="100%" height="100%" fill="white"/>
<line x1="88" y1="608" x2="1076" y2="608" stroke="#111827"/>
<line x1="88" y1="36" x2="88" y2="608" stroke="#111827"/>
<text x="550.0" y="660" text-anchor="middle" font-family="sans-serif" font-size="18">Instruction Count</text>
<text x="24" y="340.0" transform="rotate(-90 24 340.0)" text-anchor="middle" font-family="sans-serif" font-size="18">Coverage (%)</text>
<text x="88" y="24" font-family="sans-serif" font-size="20">Ibex coverage convergence vs instruction count</text>
<line x1="88.0" y1="36" x2="88.0" y2="614" stroke="#e5e7eb"/>
<text x="88.0" y="632" text-anchor="middle" font-family="sans-serif" font-size="14">0</text>
<line x1="335.0" y1="36" x2="335.0" y2="614" stroke="#e5e7eb"/>
<text x="335.0" y="632" text-anchor="middle" font-family="sans-serif" font-size="14">5,000</text>
<line x1="582.0" y1="36" x2="582.0" y2="614" stroke="#e5e7eb"/>
<text x="582.0" y="632" text-anchor="middle" font-family="sans-serif" font-size="14">10,000</text>
<line x1="829.0" y1="36" x2="829.0" y2="614" stroke="#e5e7eb"/>
<text x="829.0" y="632" text-anchor="middle" font-family="sans-serif" font-size="14">15,000</text>
<line x1="1076.0" y1="36" x2="1076.0" y2="614" stroke="#e5e7eb"/>
<text x="1076.0" y="632" text-anchor="middle" font-family="sans-serif" font-size="14">20,000</text>
<line x1="82" y1="608.0" x2="1076" y2="608.0" stroke="#e5e7eb"/>
<text x="76" y="613.0" text-anchor="end" font-family="sans-serif" font-size="14">0</text>
<line x1="82" y1="493.6" x2="1076" y2="493.6" stroke="#e5e7eb"/>
<text x="76" y="498.6" text-anchor="end" font-family="sans-serif" font-size="14">20</text>
<line x1="82" y1="379.2" x2="1076" y2="379.2" stroke="#e5e7eb"/>
<text x="76" y="384.2" text-anchor="end" font-family="sans-serif" font-size="14">40</text>
<line x1="82" y1="264.8" x2="1076" y2="264.8" stroke="#e5e7eb"/>
<text x="76" y="269.8" text-anchor="end" font-family="sans-serif" font-size="14">60</text>
<line x1="82" y1="150.4" x2="1076" y2="150.4" stroke="#e5e7eb"/>
<text x="76" y="155.4" text-anchor="end" font-family="sans-serif" font-size="14">80</text>
<line x1="82" y1="36.0" x2="1076" y2="36.0" stroke="#e5e7eb"/>
<text x="76" y="41.0" text-anchor="end" font-family="sans-serif" font-size="14">100</text>
<polyline fill="none" stroke="#2563eb" stroke-width="2.2" points="88.0,608.0 137.4,195.2 186.8,195.2 236.2,195.2 285.6,195.2 335.0,195.2 384.4,195.2 433.8,195.2 483.2,195.2 532.6,195.2 582.0,195.2 631.4,195.2 680.8,195.2 730.2,195.2 779.6,195.2 829.0,195.2 878.4,195.2 927.8,195.2 977.2,195.2 1026.6,195.2 1076.0,195.2"/>
<polyline fill="none" stroke="#dc2626" stroke-width="2.2" points="88.0,608.0 137.4,335.3 186.8,335.3 236.2,335.3 285.6,335.3 335.0,335.3 384.4,335.3 433.8,335.3 483.2,335.3 532.6,335.3 582.0,335.3 631.4,335.3 680.8,335.3 730.2,335.3 779.6,335.3 829.0,335.3 878.4,335.3 927.8,335.3 977.2,335.3 1026.6,335.3 1076.0,335.3"/>
<polyline fill="none" stroke="#16a34a" stroke-width="2.2" points="88.0,608.0 137.4,189.2 186.8,189.2 236.2,189.2 285.6,189.2 335.0,189.2 384.4,189.2 433.8,189.2 483.2,189.2 532.6,189.2 582.0,189.2 631.4,189.2 680.8,189.2 730.2,189.2 779.6,189.2 829.0,189.2 878.4,189.2 927.8,189.2 977.2,189.2 1026.6,189.2 1076.0,189.2"/>
<polyline fill="none" stroke="#9333ea" stroke-width="2.2" points="88.0,608.0 137.4,267.5 186.8,267.5 236.2,267.5 285.6,267.5 335.0,267.5 384.4,267.5 433.8,267.5 483.2,267.5 532.6,267.5 582.0,267.5 631.4,267.5 680.8,267.5 730.2,267.5 779.6,267.5 829.0,267.5 878.4,267.5 927.8,267.5 977.2,267.5 1026.6,267.5 1076.0,267.5"/>
<polyline fill="none" stroke="#ea580c" stroke-width="2.2" points="88.0,608.0 137.4,355.3 186.8,355.3 236.2,355.3 285.6,355.3 335.0,355.3 384.4,355.3 433.8,355.3 483.2,355.3 532.6,355.3 582.0,355.3 631.4,355.3 680.8,355.3 730.2,355.3 779.6,355.3 829.0,355.3 878.4,355.3 927.8,355.3 977.2,355.3 1026.6,355.3 1076.0,355.3"/>
<polyline fill="none" stroke="#0891b2" stroke-width="2.2" points="88.0,608.0 137.4,189.2 186.8,189.2 236.2,189.2 285.6,189.2 335.0,189.2 384.4,189.2 433.8,189.2 483.2,189.2 532.6,189.2 582.0,189.2 631.4,189.2 680.8,189.2 730.2,189.2 779.6,189.2 829.0,189.2 878.4,189.2 927.8,189.2 977.2,189.2 1026.6,189.2 1076.0,189.2"/>
<polyline fill="none" stroke="#4d7c0f" stroke-width="2.2" points="88.0,608.0 137.4,392.5 186.8,392.5 236.2,392.5 285.6,392.5 335.0,392.5 384.4,392.5 433.8,392.5 483.2,392.5 532.6,392.5 582.0,392.5 631.4,392.5 680.8,392.5 730.2,392.5 779.6,392.5 829.0,392.5 878.4,392.5 927.8,392.5 977.2,392.5 1026.6,392.5 1076.0,392.5"/>
<polyline fill="none" stroke="#be123c" stroke-width="2.2" points="88.0,608.0 137.4,91.7 186.8,91.7 236.2,91.7 285.6,91.7 335.0,91.7 384.4,91.7 433.8,91.7 483.2,91.7 532.6,91.7 582.0,91.7 631.4,91.7 680.8,91.7 730.2,91.7 779.6,91.7 829.0,91.7 878.4,91.7 927.8,91.7 977.2,91.7 1026.6,91.7 1076.0,91.7"/>
<polyline fill="none" stroke="#475569" stroke-width="2.2" points="88.0,608.0 137.4,583.5 186.8,583.5 236.2,583.5 285.6,583.5 335.0,583.5 384.4,583.5 433.8,583.5 483.2,583.5 532.6,583.5 582.0,583.5 631.4,583.5 680.8,583.5 730.2,583.5 779.6,583.5 829.0,583.5 878.4,583.5 927.8,583.5 977.2,583.5 1026.6,583.5 1076.0,583.5"/>
<line x1="106" y1="54" x2="134" y2="54" stroke="#2563eb" stroke-width="3"/>
<text x="142" y="59" font-family="sans-serif" font-size="14">block</text>
<line x1="326" y1="54" x2="354" y2="54" stroke="#dc2626" stroke-width="3"/>
<text x="362" y="59" font-family="sans-serif" font-size="14">branch</text>
<line x1="546" y1="54" x2="574" y2="54" stroke="#16a34a" stroke-width="3"/>
<text x="582" y="59" font-family="sans-serif" font-size="14">statement</text>
<line x1="106" y1="78" x2="134" y2="78" stroke="#9333ea" stroke-width="3"/>
<text x="142" y="83" font-family="sans-serif" font-size="14">expression</text>
<line x1="326" y1="78" x2="354" y2="78" stroke="#ea580c" stroke-width="3"/>
<text x="362" y="83" font-family="sans-serif" font-size="14">toggle</text>
<line x1="546" y1="78" x2="574" y2="78" stroke="#0891b2" stroke-width="3"/>
<text x="582" y="83" font-family="sans-serif" font-size="14">statement_dup</text>
<line x1="106" y1="102" x2="134" y2="102" stroke="#4d7c0f" stroke-width="3"/>
<text x="142" y="107" font-family="sans-serif" font-size="14">fsm</text>
<line x1="326" y1="102" x2="354" y2="102" stroke="#be123c" stroke-width="3"/>
<text x="362" y="107" font-family="sans-serif" font-size="14">assertion</text>
<line x1="546" y1="102" x2="574" y2="102" stroke="#475569" stroke-width="3"/>
<text x="582" y="107" font-family="sans-serif" font-size="14">covergroup</text>
</svg>
