<svg xmlns="http://www.w3.org/2000/svg" width="1100" height="680" viewBox="0 0 1100 680">
<rect width="100%" height="100%" fill="white"/>
<line x1="88" y1="608" x2="1076" y2="608" stroke="#111827"/>
<line x1="88" y1="36" x2="88" y2="608" stroke="#111827"/>
<text x="550.0" y="660" text-anchor="middle" font-family="sans-serif" font-size="18">Instruction Count</text>
<text x="24" y="340.0" transform="rotate(-90 24 340.0)" text-anchor="middle" font-family="sans-serif" font-size="18">Coverage (%)</text>
<text x="88" y="24" font-family="sans-serif" font-size="20">Ibex coverage convergence vs retired instructions</text>
<line x1="88.0" y1="36" x2="88.0" y2="614" stroke="#e5e7eb"/>
<text x="88.0" y="632" text-anchor="middle" font-family="sans-serif" font-size="14">0</text>
<line x1="335.0" y1="36" x2="335.0" y2="614" stroke="#e5e7eb"/>
<text x="335.0" y="632" text-anchor="middle" font-family="sans-serif" font-size="14">520</text>
<line x1="582.0" y1="36" x2="582.0" y2="614" stroke="#e5e7eb"/>
<text x="582.0" y="632" text-anchor="middle" font-family="sans-serif" font-size="14">1,040</text>
<line x1="829.0" y1="36" x2="829.0" y2="614" stroke="#e5e7eb"/>
<text x="829.0" y="632" text-anchor="middle" font-family="sans-serif" font-size="14">1,559</text>
<line x1="1076.0" y1="36" x2="1076.0" y2="614" stroke="#e5e7eb"/>
<text x="1076.0" y="632" text-anchor="middle" font-family="sans-serif" font-size="14">2,079</text>
<line x1="82" y1="608.0" x2="1076" y2="608.0" stroke="#e5e7eb"/>
<text x="76" y="613.0" text-anchor="end" font-family="sans-serif" font-size="14">0</text>
<line x1="82" y1="493.6" x2="1076" y2="493.6" stroke="#e5e7eb"/>
<text x="76" y="498.6" text-anchor="end" font-family="sans-serif" font-size="14">20</text>
<line x1="82" y1="379.2" x2="1076" y2="379.2" stroke="#e5e7eb"/>
<text x="76" y="384.2" text-anchor="end" font-family="sans-serif" font-size="14">40</text>
<line x1="82" y1="264.8" x2="1076" y2="264.8" stroke="#e5e7eb"/>
<text x="76" y="269.8" text-anchor="end" font-family="sans-serif" font-size="14">60</text>
<line x1="82" y1="150.4" x2="1076" y2="150.4" stroke="#e5e7eb"/>
<text x="76" y="155.4" text-anchor="end" font-family="sans-serif" font-size="14">80</text>
<line x1="82" y1="36.0" x2="1076" y2="36.0" stroke="#e5e7eb"/>
<text x="76" y="41.0" text-anchor="end" font-family="sans-serif" font-size="14">100</text>
<polyline fill="none" stroke="#2563eb" stroke-width="2.2" points="376.5,165.3 1076.0,163.1"/>
<polyline fill="none" stroke="#dc2626" stroke-width="2.2" points="376.5,277.3 1076.0,273.2"/>
<polyline fill="none" stroke="#16a34a" stroke-width="2.2" points="376.5,157.1 1076.0,155.8"/>
<polyline fill="none" stroke="#9333ea" stroke-width="2.2" points="376.5,226.1 1076.0,222.8"/>
<polyline fill="none" stroke="#ea580c" stroke-width="2.2" points="376.5,242.5 1076.0,229.7"/>
<polyline fill="none" stroke="#0891b2" stroke-width="2.2" points="376.5,157.1 1076.0,155.8"/>
<polyline fill="none" stroke="#4d7c0f" stroke-width="2.2" points="376.5,259.8 1076.0,259.8"/>
<polyline fill="none" stroke="#be123c" stroke-width="2.2" points="376.5,66.8 1076.0,66.8"/>
<polyline fill="none" stroke="#475569" stroke-width="2.2" points="376.5,572.1 1076.0,567.3"/>
<line x1="106" y1="54" x2="134" y2="54" stroke="#2563eb" stroke-width="3"/>
<text x="142" y="59" font-family="sans-serif" font-size="14">block</text>
<line x1="326" y1="54" x2="354" y2="54" stroke="#dc2626" stroke-width="3"/>
<text x="362" y="59" font-family="sans-serif" font-size="14">branch</text>
<line x1="546" y1="54" x2="574" y2="54" stroke="#16a34a" stroke-width="3"/>
<text x="582" y="59" font-family="sans-serif" font-size="14">statement</text>
<line x1="106" y1="78" x2="134" y2="78" stroke="#9333ea" stroke-width="3"/>
<text x="142" y="83" font-family="sans-serif" font-size="14">expression</text>
<line x1="326" y1="78" x2="354" y2="78" stroke="#ea580c" stroke-width="3"/>
<text x="362" y="83" font-family="sans-serif" font-size="14">toggle</text>
<line x1="546" y1="78" x2="574" y2="78" stroke="#0891b2" stroke-width="3"/>
<text x="582" y="83" font-family="sans-serif" font-size="14">statement_dup</text>
<line x1="106" y1="102" x2="134" y2="102" stroke="#4d7c0f" stroke-width="3"/>
<text x="142" y="107" font-family="sans-serif" font-size="14">fsm</text>
<line x1="326" y1="102" x2="354" y2="102" stroke="#be123c" stroke-width="3"/>
<text x="362" y="107" font-family="sans-serif" font-size="14">assertion</text>
<line x1="546" y1="102" x2="574" y2="102" stroke="#475569" stroke-width="3"/>
<text x="582" y="107" font-family="sans-serif" font-size="14">covergroup</text>
</svg>
