<svg xmlns="http://www.w3.org/2000/svg" width="1100" height="680" viewBox="0 0 1100 680">
<rect width="100%" height="100%" fill="white"/>
<line x1="88" y1="608" x2="1076" y2="608" stroke="#111827"/>
<line x1="88" y1="36" x2="88" y2="608" stroke="#111827"/>
<text x="550.0" y="660" text-anchor="middle" font-family="sans-serif" font-size="18">Instruction Count</text>
<text x="24" y="340.0" transform="rotate(-90 24 340.0)" text-anchor="middle" font-family="sans-serif" font-size="18">Coverage (%)</text>
<text x="88" y="24" font-family="sans-serif" font-size="20">Ibex coverage convergence vs instruction count</text>
<line x1="88.0" y1="36" x2="88.0" y2="614" stroke="#e5e7eb"/>
<text x="88.0" y="632" text-anchor="middle" font-family="sans-serif" font-size="14">0</text>
<line x1="335.0" y1="36" x2="335.0" y2="614" stroke="#e5e7eb"/>
<text x="335.0" y="632" text-anchor="middle" font-family="sans-serif" font-size="14">50,000</text>
<line x1="582.0" y1="36" x2="582.0" y2="614" stroke="#e5e7eb"/>
<text x="582.0" y="632" text-anchor="middle" font-family="sans-serif" font-size="14">100,000</text>
<line x1="829.0" y1="36" x2="829.0" y2="614" stroke="#e5e7eb"/>
<text x="829.0" y="632" text-anchor="middle" font-family="sans-serif" font-size="14">150,000</text>
<line x1="1076.0" y1="36" x2="1076.0" y2="614" stroke="#e5e7eb"/>
<text x="1076.0" y="632" text-anchor="middle" font-family="sans-serif" font-size="14">200,000</text>
<line x1="82" y1="608.0" x2="1076" y2="608.0" stroke="#e5e7eb"/>
<text x="76" y="613.0" text-anchor="end" font-family="sans-serif" font-size="14">0</text>
<line x1="82" y1="493.6" x2="1076" y2="493.6" stroke="#e5e7eb"/>
<text x="76" y="498.6" text-anchor="end" font-family="sans-serif" font-size="14">20</text>
<line x1="82" y1="379.2" x2="1076" y2="379.2" stroke="#e5e7eb"/>
<text x="76" y="384.2" text-anchor="end" font-family="sans-serif" font-size="14">40</text>
<line x1="82" y1="264.8" x2="1076" y2="264.8" stroke="#e5e7eb"/>
<text x="76" y="269.8" text-anchor="end" font-family="sans-serif" font-size="14">60</text>
<line x1="82" y1="150.4" x2="1076" y2="150.4" stroke="#e5e7eb"/>
<text x="76" y="155.4" text-anchor="end" font-family="sans-serif" font-size="14">80</text>
<line x1="82" y1="36.0" x2="1076" y2="36.0" stroke="#e5e7eb"/>
<text x="76" y="41.0" text-anchor="end" font-family="sans-serif" font-size="14">100</text>
<polyline fill="none" stroke="#2563eb" stroke-width="2.2" points="88.0,608.0 92.9,164.2 97.9,160.6 102.8,159.6 107.8,159.2 112.7,158.6 117.6,158.4 122.6,157.2 127.5,156.5 132.5,156.2 137.4,156.0 142.3,155.9 147.3,155.8 152.2,155.8 157.2,155.6 162.1,155.3 167.0,154.2 172.0,154.1 176.9,154.1 181.9,153.8 186.8,153.7 191.7,153.5 196.7,153.5 201.6,153.3 206.6,153.1 211.5,152.9 216.4,152.7 221.4,152.6 226.3,152.5 231.3,152.5 236.2,152.2 241.1,152.2 246.1,152.1 251.0,151.8 256.0,151.8 260.9,151.6 265.8,151.0 270.8,150.9 275.7,150.5 280.7,150.5 285.6,150.5 290.5,150.5 295.5,150.5 300.4,150.5 305.4,150.5 310.3,150.5 315.2,150.5 320.2,150.5 325.1,150.3 330.1,150.3 335.0,150.3 339.9,150.3 344.9,150.3 349.8,150.3 354.8,150.2 359.7,150.2 364.6,150.2 369.6,150.2 374.5,150.2 379.5,150.2 384.4,150.2 389.3,149.3 394.3,149.2 399.2,149.1 404.2,149.1 409.1,149.1 414.0,149.1 419.0,149.1 423.9,149.0 428.9,149.0 433.8,149.0 438.7,147.7 443.7,147.7 448.6,147.7 453.6,147.7 458.5,147.7 463.4,147.7 468.4,147.7 473.3,147.6 478.3,147.6 483.2,147.4 488.1,147.4 493.1,147.4 498.0,147.4 503.0,147.3 507.9,147.3 512.8,147.2 517.8,147.1 522.7,146.9 527.7,146.9 532.6,146.8 537.5,146.8 542.5,146.7 547.4,146.5 552.4,146.4 557.3,146.4 562.2,146.4 567.2,146.4 572.1,146.3 577.1,146.3 582.0,146.3 586.9,146.3 591.9,146.3 596.8,145.8 601.8,145.8 606.7,145.8 611.6,145.8 616.6,145.8 621.5,145.8 626.5,145.7 631.4,145.7 636.3,145.7 641.3,145.7 646.2,145.7 651.2,145.7 656.1,145.7 661.0,145.6 666.0,145.4 670.9,145.2 675.9,145.2 680.8,145.2 685.7,145.2 690.7,145.2 695.6,145.2 700.6,145.2 705.5,145.1 710.4,145.1 715.4,145.1 720.3,145.1 725.3,145.1 730.2,145.1 735.1,145.0 740.1,145.0 745.0,145.0 750.0,145.0 754.9,145.0 759.8,145.0 764.8,145.0 769.7,145.0 774.7,145.0 779.6,145.0 784.5,145.0 789.5,145.0 794.4,145.0 799.4,144.9 804.3,144.9 809.2,144.9 814.2,144.9 819.1,144.9 824.1,144.9 829.0,144.9 833.9,144.9 838.9,144.7 843.8,144.6 848.8,144.6 853.7,144.6 858.6,144.6 863.6,144.6 868.5,144.6 873.5,144.6 878.4,144.5 883.3,144.3 888.3,144.3 893.2,144.3 898.2,144.2 903.1,144.2 908.0,144.2 913.0,144.2 917.9,144.2 922.9,144.2 927.8,144.2 932.7,144.2 937.7,144.2 942.6,144.2 947.6,144.0 952.5,144.0 957.4,144.0 962.4,144.0 967.3,144.0 972.3,144.0 977.2,144.0 982.1,144.0 987.1,144.0 992.0,144.0 997.0,144.0 1001.9,144.0 1006.8,143.4 1011.8,143.4 1016.7,143.4 1021.7,143.4 1026.6,143.4 1031.5,143.4 1036.5,143.4 1041.4,143.4 1046.4,143.4 1051.3,143.4 1056.2,142.7 1061.2,142.7 1066.1,142.7 1071.1,142.7 1076.0,142.7"/>
<polyline fill="none" stroke="#dc2626" stroke-width="2.2" points="88.0,608.0 92.9,274.5 97.9,267.4 102.8,265.2 107.8,264.4 112.7,263.3 117.6,262.9 122.6,261.2 127.5,260.1 132.5,259.8 137.4,259.4 142.3,259.3 147.3,259.1 152.2,259.1 157.2,258.6 162.1,257.9 167.0,257.0 172.0,256.8 176.9,256.6 181.9,256.2 186.8,256.0 191.7,255.6 196.7,255.6 201.6,255.2 206.6,254.8 211.5,254.3 216.4,254.0 221.4,253.9 226.3,253.5 231.3,253.5 236.2,253.1 241.1,253.1 246.1,252.7 251.0,252.3 256.0,252.2 260.9,251.8 265.8,250.8 270.8,250.7 275.7,250.0 280.7,250.0 285.6,250.0 290.5,250.0 295.5,250.0 300.4,250.0 305.4,250.0 310.3,250.0 315.2,250.0 320.2,249.9 325.1,249.7 330.1,249.5 335.0,249.5 339.9,249.5 344.9,249.5 349.8,249.5 354.8,249.4 359.7,249.4 364.6,249.4 369.6,249.4 374.5,249.4 379.5,249.4 384.4,249.4 389.3,248.1 394.3,247.9 399.2,247.8 404.2,247.8 409.1,247.8 414.0,247.8 419.0,247.8 423.9,247.6 428.9,247.6 433.8,247.6 438.7,246.4 443.7,246.4 448.6,246.4 453.6,246.4 458.5,246.4 463.4,246.4 468.4,246.4 473.3,246.2 478.3,246.2 483.2,245.9 488.1,245.9 493.1,245.7 498.0,245.7 503.0,245.5 507.9,245.5 512.8,245.4 517.8,245.2 522.7,244.9 527.7,244.9 532.6,244.7 537.5,244.7 542.5,244.6 547.4,244.1 552.4,243.9 557.3,243.9 562.2,243.9 567.2,243.9 572.1,243.8 577.1,243.8 582.0,243.8 586.9,243.8 591.9,243.8 596.8,243.1 601.8,243.1 606.7,243.1 611.6,243.1 616.6,243.1 621.5,243.1 626.5,242.9 631.4,242.9 636.3,242.9 641.3,242.9 646.2,242.9 651.2,242.9 656.1,242.9 661.0,242.6 666.0,242.3 670.9,242.0 675.9,242.0 680.8,242.0 685.7,242.0 690.7,242.0 695.6,242.0 700.6,242.0 705.5,241.9 710.4,241.9 715.4,241.9 720.3,241.9 725.3,241.9 730.2,241.9 735.1,241.5 740.1,241.5 745.0,241.5 750.0,241.5 754.9,241.5 759.8,241.5 764.8,241.5 769.7,241.5 774.7,241.5 779.6,241.5 784.5,241.5 789.5,241.5 794.4,241.5 799.4,241.3 804.3,241.3 809.2,241.3 814.2,241.3 819.1,241.3 824.1,241.3 829.0,241.3 833.9,241.3 838.9,241.1 843.8,240.9 848.8,240.9 853.7,240.7 858.6,240.7 863.6,240.7 868.5,240.7 873.5,240.7 878.4,240.5 883.3,240.4 888.3,240.4 893.2,240.4 898.2,240.2 903.1,240.2 908.0,240.2 913.0,240.2 917.9,240.2 922.9,240.2 927.8,240.2 932.7,240.2 937.7,240.2 942.6,240.2 947.6,239.7 952.5,239.7 957.4,239.7 962.4,239.7 967.3,239.7 972.3,239.7 977.2,239.7 982.1,239.7 987.1,239.7 992.0,239.7 997.0,239.7 1001.9,239.7 1006.8,238.8 1011.8,238.8 1016.7,238.8 1021.7,238.8 1026.6,238.8 1031.5,238.8 1036.5,238.8 1041.4,238.8 1046.4,238.8 1051.3,238.8 1056.2,237.6 1061.2,237.6 1066.1,237.6 1071.1,237.6 1076.0,237.6"/>
<polyline fill="none" stroke="#16a34a" stroke-width="2.2" points="88.0,608.0 92.9,157.6 97.9,153.4 102.8,152.3 107.8,151.9 112.7,151.3 117.6,151.0 122.6,149.2 127.5,148.5 132.5,148.3 137.4,148.1 142.3,148.0 147.3,147.9 152.2,147.9 157.2,147.7 162.1,147.4 167.0,145.5 172.0,145.4 176.9,145.4 181.9,145.1 186.8,145.1 191.7,144.9 196.7,144.9 201.6,144.6 206.6,144.5 211.5,144.4 216.4,144.2 221.4,144.1 226.3,144.0 231.3,144.0 236.2,143.8 241.1,143.8 246.1,143.5 251.0,143.2 256.0,143.1 260.9,143.0 265.8,142.2 270.8,142.0 275.7,141.8 280.7,141.8 285.6,141.8 290.5,141.8 295.5,141.8 300.4,141.8 305.4,141.8 310.3,141.8 315.2,141.8 320.2,141.6 325.1,141.6 330.1,141.5 335.0,141.5 339.9,141.5 344.9,141.5 349.8,141.5 354.8,141.4 359.7,141.4 364.6,141.4 369.6,141.4 374.5,141.4 379.5,141.4 384.4,141.4 389.3,140.2 394.3,140.1 399.2,140.0 404.2,140.0 409.1,140.0 414.0,140.0 419.0,140.0 423.9,139.9 428.9,139.9 433.8,139.9 438.7,137.6 443.7,137.6 448.6,137.6 453.6,137.6 458.5,137.6 463.4,137.6 468.4,137.6 473.3,137.5 478.3,137.5 483.2,137.4 488.1,137.4 493.1,137.3 498.0,137.3 503.0,137.2 507.9,137.2 512.8,137.1 517.8,137.1 522.7,136.0 527.7,136.0 532.6,136.0 537.5,136.0 542.5,135.9 547.4,135.6 552.4,135.6 557.3,135.6 562.2,135.6 567.2,135.6 572.1,135.5 577.1,135.5 582.0,135.5 586.9,135.5 591.9,135.5 596.8,134.7 601.8,134.7 606.7,134.7 611.6,134.7 616.6,134.7 621.5,134.7 626.5,134.6 631.4,134.6 636.3,134.6 641.3,134.6 646.2,134.6 651.2,134.6 656.1,134.6 661.0,134.4 666.0,134.3 670.9,134.2 675.9,134.2 680.8,134.2 685.7,134.2 690.7,134.2 695.6,134.2 700.6,134.2 705.5,134.0 710.4,134.0 715.4,134.0 720.3,134.0 725.3,134.0 730.2,134.0 735.1,133.9 740.1,133.9 745.0,133.9 750.0,133.9 754.9,133.9 759.8,133.9 764.8,133.9 769.7,133.9 774.7,133.9 779.6,133.9 784.5,133.9 789.5,133.9 794.4,133.9 799.4,133.8 804.3,133.8 809.2,133.8 814.2,133.8 819.1,133.8 824.1,133.8 829.0,133.8 833.9,133.8 838.9,133.6 843.8,133.6 848.8,133.6 853.7,133.5 858.6,133.5 863.6,133.5 868.5,133.5 873.5,133.5 878.4,133.4 883.3,133.3 888.3,133.3 893.2,133.3 898.2,133.2 903.1,133.2 908.0,133.2 913.0,133.2 917.9,133.2 922.9,133.2 927.8,133.2 932.7,133.2 937.7,133.2 942.6,133.2 947.6,133.0 952.5,133.0 957.4,133.0 962.4,133.0 967.3,133.0 972.3,133.0 977.2,133.0 982.1,133.0 987.1,133.0 992.0,133.0 997.0,133.0 1001.9,133.0 1006.8,132.0 1011.8,132.0 1016.7,132.0 1021.7,132.0 1026.6,132.0 1031.5,132.0 1036.5,132.0 1041.4,132.0 1046.4,132.0 1051.3,132.0 1056.2,130.8 1061.2,130.8 1066.1,130.8 1071.1,130.8 1076.0,130.8"/>
<polyline fill="none" stroke="#9333ea" stroke-width="2.2" points="88.0,608.0 92.9,224.9 97.9,222.3 102.8,220.2 107.8,219.7 112.7,219.3 117.6,219.0 122.6,217.6 127.5,217.0 132.5,216.6 137.4,216.6 142.3,216.6 147.3,216.4 152.2,216.4 157.2,216.3 162.1,216.3 167.0,215.9 172.0,215.7 176.9,215.7 181.9,215.7 186.8,215.7 191.7,215.5 196.7,215.5 201.6,215.5 206.6,215.5 211.5,215.5 216.4,215.5 221.4,215.5 226.3,215.5 231.3,215.5 236.2,215.5 241.1,215.5 246.1,215.3 251.0,215.1 256.0,215.1 260.9,215.1 265.8,214.1 270.8,214.1 275.7,214.1 280.7,214.1 285.6,214.1 290.5,214.1 295.5,214.1 300.4,214.1 305.4,214.1 310.3,214.1 315.2,214.1 320.2,214.1 325.1,214.1 330.1,213.9 335.0,213.9 339.9,213.9 344.9,213.9 349.8,213.9 354.8,213.9 359.7,213.9 364.6,213.9 369.6,213.9 374.5,213.9 379.5,213.9 384.4,213.9 389.3,213.3 394.3,213.3 399.2,213.3 404.2,213.3 409.1,213.3 414.0,213.3 419.0,213.3 423.9,213.3 428.9,213.3 433.8,213.3 438.7,212.6 443.7,212.6 448.6,212.6 453.6,212.6 458.5,212.6 463.4,212.6 468.4,212.6 473.3,212.6 478.3,212.6 483.2,212.6 488.1,212.6 493.1,212.6 498.0,212.6 503.0,212.6 507.9,212.6 512.8,212.6 517.8,212.6 522.7,212.6 527.7,212.6 532.6,212.6 537.5,212.6 542.5,212.6 547.4,212.6 552.4,212.6 557.3,212.6 562.2,212.6 567.2,212.6 572.1,212.6 577.1,212.6 582.0,212.6 586.9,212.6 591.9,212.6 596.8,212.0 601.8,212.0 606.7,212.0 611.6,212.0 616.6,212.0 621.5,212.0 626.5,212.0 631.4,212.0 636.3,212.0 641.3,212.0 646.2,212.0 651.2,212.0 656.1,212.0 661.0,212.0 666.0,211.6 670.9,211.5 675.9,211.5 680.8,211.5 685.7,211.5 690.7,211.5 695.6,211.5 700.6,211.5 705.5,211.5 710.4,211.5 715.4,211.5 720.3,211.5 725.3,211.5 730.2,211.5 735.1,211.5 740.1,211.5 745.0,211.5 750.0,211.5 754.9,211.5 759.8,211.5 764.8,211.5 769.7,211.5 774.7,211.5 779.6,211.5 784.5,211.5 789.5,211.5 794.4,211.5 799.4,211.5 804.3,211.5 809.2,211.5 814.2,211.5 819.1,211.5 824.1,211.5 829.0,211.5 833.9,211.5 838.9,211.5 843.8,211.5 848.8,211.5 853.7,211.5 858.6,211.5 863.6,211.5 868.5,211.5 873.5,211.5 878.4,211.5 883.3,211.5 888.3,211.5 893.2,211.5 898.2,211.5 903.1,211.5 908.0,211.5 913.0,211.5 917.9,211.5 922.9,211.5 927.8,211.5 932.7,211.5 937.7,211.5 942.6,211.5 947.6,210.9 952.5,210.9 957.4,210.9 962.4,210.9 967.3,210.8 972.3,210.8 977.2,210.8 982.1,210.8 987.1,210.8 992.0,210.8 997.0,210.8 1001.9,210.8 1006.8,210.7 1011.8,210.7 1016.7,209.1 1021.7,209.1 1026.6,209.1 1031.5,209.1 1036.5,209.1 1041.4,209.1 1046.4,209.1 1051.3,209.1 1056.2,209.1 1061.2,209.1 1066.1,209.1 1071.1,209.1 1076.0,209.1"/>
<polyline fill="none" stroke="#ea580c" stroke-width="2.2" points="88.0,608.0 92.9,230.9 97.9,224.7 102.8,222.2 107.8,220.0 112.7,217.2 117.6,216.9 122.6,216.5 127.5,215.8 132.5,215.4 137.4,212.3 142.3,211.0 147.3,210.9 152.2,210.7 157.2,208.9 162.1,207.2 167.0,207.1 172.0,206.9 176.9,206.4 181.9,206.0 186.8,205.9 191.7,205.7 196.7,204.7 201.6,204.2 206.6,203.9 211.5,203.5 216.4,203.3 221.4,203.0 226.3,202.8 231.3,202.8 236.2,202.4 241.1,201.7 246.1,201.4 251.0,201.0 256.0,201.0 260.9,200.7 265.8,200.7 270.8,200.7 275.7,200.4 280.7,200.4 285.6,200.4 290.5,199.9 295.5,199.8 300.4,199.4 305.4,199.4 310.3,199.4 315.2,199.4 320.2,199.3 325.1,199.2 330.1,199.1 335.0,199.1 339.9,199.1 344.9,199.1 349.8,199.1 354.8,199.0 359.7,199.0 364.6,198.8 369.6,198.8 374.5,198.8 379.5,198.8 384.4,198.8 389.3,197.2 394.3,197.1 399.2,197.0 404.2,197.0 409.1,197.0 414.0,197.0 419.0,197.0 423.9,196.9 428.9,196.9 433.8,196.9 438.7,196.4 443.7,196.3 448.6,196.3 453.6,196.3 458.5,196.3 463.4,196.3 468.4,196.0 473.3,195.9 478.3,194.9 483.2,194.8 488.1,194.8 493.1,194.8 498.0,194.8 503.0,194.7 507.9,194.7 512.8,194.6 517.8,194.4 522.7,194.4 527.7,194.4 532.6,194.3 537.5,194.3 542.5,194.3 547.4,194.3 552.4,194.3 557.3,194.3 562.2,194.3 567.2,194.2 572.1,193.6 577.1,193.6 582.0,193.6 586.9,193.5 591.9,193.5 596.8,193.5 601.8,193.5 606.7,193.5 611.6,193.5 616.6,193.5 621.5,193.5 626.5,193.4 631.4,193.4 636.3,193.4 641.3,193.4 646.2,193.3 651.2,193.3 656.1,193.3 661.0,193.2 666.0,193.2 670.9,193.2 675.9,193.2 680.8,193.2 685.7,193.2 690.7,193.2 695.6,193.2 700.6,193.0 705.5,193.0 710.4,193.0 715.4,193.0 720.3,193.0 725.3,193.0 730.2,193.0 735.1,192.8 740.1,192.8 745.0,192.8 750.0,192.8 754.9,192.8 759.8,192.8 764.8,192.8 769.7,192.8 774.7,192.8 779.6,192.8 784.5,192.8 789.5,192.8 794.4,192.8 799.4,192.8 804.3,192.8 809.2,192.8 814.2,192.8 819.1,192.8 824.1,192.8 829.0,192.8 833.9,192.8 838.9,192.7 843.8,192.6 848.8,192.6 853.7,192.6 858.6,192.6 863.6,192.5 868.5,192.5 873.5,192.5 878.4,192.4 883.3,192.4 888.3,192.4 893.2,192.4 898.2,192.4 903.1,192.4 908.0,192.4 913.0,192.4 917.9,192.4 922.9,192.4 927.8,192.4 932.7,192.4 937.7,192.4 942.6,192.4 947.6,192.4 952.5,192.4 957.4,192.4 962.4,192.4 967.3,192.4 972.3,192.4 977.2,192.4 982.1,192.4 987.1,192.4 992.0,192.4 997.0,192.4 1001.9,192.4 1006.8,192.4 1011.8,192.4 1016.7,192.4 1021.7,192.4 1026.6,192.4 1031.5,192.4 1036.5,192.4 1041.4,192.4 1046.4,192.4 1051.3,192.4 1056.2,192.4 1061.2,192.4 1066.1,192.4 1071.1,192.4 1076.0,192.4"/>
<polyline fill="none" stroke="#0891b2" stroke-width="2.2" points="88.0,608.0 92.9,157.6 97.9,153.4 102.8,152.3 107.8,151.9 112.7,151.3 117.6,151.0 122.6,149.2 127.5,148.5 132.5,148.3 137.4,148.1 142.3,148.0 147.3,147.9 152.2,147.9 157.2,147.7 162.1,147.4 167.0,145.5 172.0,145.4 176.9,145.4 181.9,145.1 186.8,145.1 191.7,144.9 196.7,144.9 201.6,144.6 206.6,144.5 211.5,144.4 216.4,144.2 221.4,144.1 226.3,144.0 231.3,144.0 236.2,143.8 241.1,143.8 246.1,143.5 251.0,143.2 256.0,143.1 260.9,143.0 265.8,142.2 270.8,142.0 275.7,141.8 280.7,141.8 285.6,141.8 290.5,141.8 295.5,141.8 300.4,141.8 305.4,141.8 310.3,141.8 315.2,141.8 320.2,141.6 325.1,141.6 330.1,141.5 335.0,141.5 339.9,141.5 344.9,141.5 349.8,141.5 354.8,141.4 359.7,141.4 364.6,141.4 369.6,141.4 374.5,141.4 379.5,141.4 384.4,141.4 389.3,140.2 394.3,140.1 399.2,140.0 404.2,140.0 409.1,140.0 414.0,140.0 419.0,140.0 423.9,139.9 428.9,139.9 433.8,139.9 438.7,137.6 443.7,137.6 448.6,137.6 453.6,137.6 458.5,137.6 463.4,137.6 468.4,137.6 473.3,137.5 478.3,137.5 483.2,137.4 488.1,137.4 493.1,137.3 498.0,137.3 503.0,137.2 507.9,137.2 512.8,137.1 517.8,137.1 522.7,136.0 527.7,136.0 532.6,136.0 537.5,136.0 542.5,135.9 547.4,135.6 552.4,135.6 557.3,135.6 562.2,135.6 567.2,135.6 572.1,135.5 577.1,135.5 582.0,135.5 586.9,135.5 591.9,135.5 596.8,134.7 601.8,134.7 606.7,134.7 611.6,134.7 616.6,134.7 621.5,134.7 626.5,134.6 631.4,134.6 636.3,134.6 641.3,134.6 646.2,134.6 651.2,134.6 656.1,134.6 661.0,134.4 666.0,134.3 670.9,134.2 675.9,134.2 680.8,134.2 685.7,134.2 690.7,134.2 695.6,134.2 700.6,134.2 705.5,134.0 710.4,134.0 715.4,134.0 720.3,134.0 725.3,134.0 730.2,134.0 735.1,133.9 740.1,133.9 745.0,133.9 750.0,133.9 754.9,133.9 759.8,133.9 764.8,133.9 769.7,133.9 774.7,133.9 779.6,133.9 784.5,133.9 789.5,133.9 794.4,133.9 799.4,133.8 804.3,133.8 809.2,133.8 814.2,133.8 819.1,133.8 824.1,133.8 829.0,133.8 833.9,133.8 838.9,133.6 843.8,133.6 848.8,133.6 853.7,133.5 858.6,133.5 863.6,133.5 868.5,133.5 873.5,133.5 878.4,133.4 883.3,133.3 888.3,133.3 893.2,133.3 898.2,133.2 903.1,133.2 908.0,133.2 913.0,133.2 917.9,133.2 922.9,133.2 927.8,133.2 932.7,133.2 937.7,133.2 942.6,133.2 947.6,133.0 952.5,133.0 957.4,133.0 962.4,133.0 967.3,133.0 972.3,133.0 977.2,133.0 982.1,133.0 987.1,133.0 992.0,133.0 997.0,133.0 1001.9,133.0 1006.8,132.0 1011.8,132.0 1016.7,132.0 1021.7,132.0 1026.6,132.0 1031.5,132.0 1036.5,132.0 1041.4,132.0 1046.4,132.0 1051.3,132.0 1056.2,130.8 1061.2,130.8 1066.1,130.8 1071.1,130.8 1076.0,130.8"/>
<polyline fill="none" stroke="#4d7c0f" stroke-width="2.2" points="88.0,608.0 92.9,259.8 97.9,259.8 102.8,259.8 107.8,259.8 112.7,259.8 117.6,259.8 122.6,259.8 127.5,259.8 132.5,259.8 137.4,259.8 142.3,259.8 147.3,259.8 152.2,259.8 157.2,259.8 162.1,259.8 167.0,259.8 172.0,259.8 176.9,259.8 181.9,259.8 186.8,259.8 191.7,259.8 196.7,259.8 201.6,259.8 206.6,259.8 211.5,259.8 216.4,259.8 221.4,259.8 226.3,259.8 231.3,259.8 236.2,259.8 241.1,259.8 246.1,259.8 251.0,259.8 256.0,259.8 260.9,259.8 265.8,259.8 270.8,259.8 275.7,259.8 280.7,259.8 285.6,259.8 290.5,259.8 295.5,259.8 300.4,259.8 305.4,259.8 310.3,259.8 315.2,259.8 320.2,259.8 325.1,259.8 330.1,259.8 335.0,259.8 339.9,259.8 344.9,259.8 349.8,259.8 354.8,259.8 359.7,259.8 364.6,259.8 369.6,259.8 374.5,259.8 379.5,259.8 384.4,259.8 389.3,259.8 394.3,259.8 399.2,259.8 404.2,259.8 409.1,259.8 414.0,259.8 419.0,259.8 423.9,259.8 428.9,259.8 433.8,259.8 438.7,259.8 443.7,259.8 448.6,259.8 453.6,259.8 458.5,259.8 463.4,259.8 468.4,259.8 473.3,259.8 478.3,259.8 483.2,259.8 488.1,259.8 493.1,259.8 498.0,259.8 503.0,259.8 507.9,259.8 512.8,259.8 517.8,259.8 522.7,259.8 527.7,259.8 532.6,259.8 537.5,259.8 542.5,259.8 547.4,259.8 552.4,259.8 557.3,259.8 562.2,259.8 567.2,259.8 572.1,259.8 577.1,259.8 582.0,259.8 586.9,259.8 591.9,259.8 596.8,259.8 601.8,259.8 606.7,259.8 611.6,259.8 616.6,259.8 621.5,259.8 626.5,259.8 631.4,259.8 636.3,259.8 641.3,259.8 646.2,259.8 651.2,259.8 656.1,259.8 661.0,259.8 666.0,259.8 670.9,259.8 675.9,259.8 680.8,259.8 685.7,259.8 690.7,259.8 695.6,259.8 700.6,259.8 705.5,259.8 710.4,259.8 715.4,259.8 720.3,259.8 725.3,259.8 730.2,259.8 735.1,259.8 740.1,259.8 745.0,259.8 750.0,259.8 754.9,259.8 759.8,259.8 764.8,259.8 769.7,259.8 774.7,259.8 779.6,259.8 784.5,259.8 789.5,259.8 794.4,259.8 799.4,259.8 804.3,259.8 809.2,259.8 814.2,259.8 819.1,259.8 824.1,259.8 829.0,259.8 833.9,259.8 838.9,259.8 843.8,259.8 848.8,259.8 853.7,259.8 858.6,259.8 863.6,259.8 868.5,259.8 873.5,259.8 878.4,259.8 883.3,259.8 888.3,259.8 893.2,259.8 898.2,259.8 903.1,259.8 908.0,259.8 913.0,259.8 917.9,259.8 922.9,259.8 927.8,259.8 932.7,259.8 937.7,259.8 942.6,259.8 947.6,259.8 952.5,259.8 957.4,259.8 962.4,259.8 967.3,259.8 972.3,259.8 977.2,259.8 982.1,259.8 987.1,259.8 992.0,259.8 997.0,259.8 1001.9,259.8 1006.8,259.8 1011.8,259.8 1016.7,259.8 1021.7,259.8 1026.6,259.8 1031.5,259.8 1036.5,259.8 1041.4,259.8 1046.4,259.8 1051.3,259.8 1056.2,259.8 1061.2,259.8 1066.1,259.8 1071.1,259.8 1076.0,259.8"/>
<polyline fill="none" stroke="#be123c" stroke-width="2.2" points="88.0,608.0 92.9,59.5 97.9,59.5 102.8,59.5 107.8,59.5 112.7,59.5 117.6,59.5 122.6,59.5 127.5,59.5 132.5,59.5 137.4,59.5 142.3,59.5 147.3,59.5 152.2,59.5 157.2,59.5 162.1,59.5 167.0,59.5 172.0,59.5 176.9,59.5 181.9,59.5 186.8,59.5 191.7,59.5 196.7,59.5 201.6,59.5 206.6,59.5 211.5,59.5 216.4,59.5 221.4,59.5 226.3,59.5 231.3,59.5 236.2,59.5 241.1,59.5 246.1,59.5 251.0,59.5 256.0,59.5 260.9,59.5 265.8,59.5 270.8,59.5 275.7,59.5 280.7,59.5 285.6,59.5 290.5,59.5 295.5,59.5 300.4,59.5 305.4,59.5 310.3,59.5 315.2,59.5 320.2,59.5 325.1,59.5 330.1,59.5 335.0,59.5 339.9,59.5 344.9,59.5 349.8,59.5 354.8,59.5 359.7,59.5 364.6,59.5 369.6,59.5 374.5,59.5 379.5,59.5 384.4,59.5 389.3,59.5 394.3,59.5 399.2,59.5 404.2,59.5 409.1,59.5 414.0,59.5 419.0,59.5 423.9,59.5 428.9,59.5 433.8,59.5 438.7,59.5 443.7,59.5 448.6,59.5 453.6,59.5 458.5,59.5 463.4,59.5 468.4,59.5 473.3,59.5 478.3,59.5 483.2,59.5 488.1,59.5 493.1,59.5 498.0,59.5 503.0,59.5 507.9,59.5 512.8,59.5 517.8,59.5 522.7,59.5 527.7,59.5 532.6,59.5 537.5,59.5 542.5,59.5 547.4,59.5 552.4,59.5 557.3,59.5 562.2,59.5 567.2,59.5 572.1,59.5 577.1,59.5 582.0,59.5 586.9,59.5 591.9,59.5 596.8,59.5 601.8,59.5 606.7,59.5 611.6,59.5 616.6,59.5 621.5,59.5 626.5,59.5 631.4,59.5 636.3,59.5 641.3,59.5 646.2,59.5 651.2,59.5 656.1,59.5 661.0,59.5 666.0,59.5 670.9,59.5 675.9,59.5 680.8,59.5 685.7,59.5 690.7,59.5 695.6,59.5 700.6,59.5 705.5,59.5 710.4,59.5 715.4,59.5 720.3,59.5 725.3,59.5 730.2,59.5 735.1,59.5 740.1,59.5 745.0,59.5 750.0,59.5 754.9,59.5 759.8,59.5 764.8,59.5 769.7,59.5 774.7,59.5 779.6,59.5 784.5,59.5 789.5,59.5 794.4,59.5 799.4,59.5 804.3,59.5 809.2,59.5 814.2,59.5 819.1,59.5 824.1,59.5 829.0,59.5 833.9,59.5 838.9,59.5 843.8,59.5 848.8,59.5 853.7,59.5 858.6,59.5 863.6,59.5 868.5,59.5 873.5,59.5 878.4,59.5 883.3,59.5 888.3,59.5 893.2,59.5 898.2,59.5 903.1,59.5 908.0,59.5 913.0,59.5 917.9,59.5 922.9,59.5 927.8,59.5 932.7,59.5 937.7,59.5 942.6,59.5 947.6,59.5 952.5,59.5 957.4,59.5 962.4,59.5 967.3,59.5 972.3,59.5 977.2,59.5 982.1,59.5 987.1,59.5 992.0,59.5 997.0,59.5 1001.9,59.5 1006.8,59.5 1011.8,59.5 1016.7,59.5 1021.7,59.5 1026.6,59.5 1031.5,59.5 1036.5,59.5 1041.4,59.5 1046.4,59.5 1051.3,59.5 1056.2,59.5 1061.2,59.5 1066.1,59.5 1071.1,59.5 1076.0,59.5"/>
<polyline fill="none" stroke="#475569" stroke-width="2.2" points="88.0,608.0 92.9,569.6 97.9,567.1 102.8,564.6 107.8,563.4 112.7,562.7 117.6,562.4 122.6,562.2 127.5,561.7 132.5,561.7 137.4,561.7 142.3,561.6 147.3,561.6 152.2,561.6 157.2,561.4 162.1,561.3 167.0,561.3 172.0,561.3 176.9,561.0 181.9,561.0 186.8,561.0 191.7,561.0 196.7,560.9 201.6,560.9 206.6,560.9 211.5,559.6 216.4,559.6 221.4,559.6 226.3,559.6 231.3,559.6 236.2,559.6 241.1,559.6 246.1,559.4 251.0,559.2 256.0,559.2 260.9,558.6 265.8,558.6 270.8,558.6 275.7,558.5 280.7,558.5 285.6,558.5 290.5,558.1 295.5,558.1 300.4,558.1 305.4,558.0 310.3,558.0 315.2,558.0 320.2,558.0 325.1,558.0 330.1,558.0 335.0,557.9 339.9,557.9 344.9,557.9 349.8,557.9 354.8,557.9 359.7,557.9 364.6,557.9 369.6,557.9 374.5,557.8 379.5,557.8 384.4,557.8 389.3,557.8 394.3,557.8 399.2,557.8 404.2,557.8 409.1,557.8 414.0,557.8 419.0,557.8 423.9,557.8 428.9,557.8 433.8,557.8 438.7,557.8 443.7,557.8 448.6,557.6 453.6,557.6 458.5,557.6 463.4,557.6 468.4,557.5 473.3,557.5 478.3,557.5 483.2,557.5 488.1,557.5 493.1,557.5 498.0,557.5 503.0,557.5 507.9,557.5 512.8,557.5 517.8,557.5 522.7,557.5 527.7,557.5 532.6,557.5 537.5,557.5 542.5,557.5 547.4,557.4 552.4,557.4 557.3,557.4 562.2,557.4 567.2,557.4 572.1,557.4 577.1,557.4 582.0,557.4 586.9,557.4 591.9,557.4 596.8,557.4 601.8,557.4 606.7,557.4 611.6,557.4 616.6,557.4 621.5,557.4 626.5,557.4 631.4,557.4 636.3,557.4 641.3,557.3 646.2,557.3 651.2,557.3 656.1,557.3 661.0,557.3 666.0,557.3 670.9,557.2 675.9,557.2 680.8,557.2 685.7,557.2 690.7,557.2 695.6,557.2 700.6,557.2 705.5,557.2 710.4,557.2 715.4,557.2 720.3,557.1 725.3,557.1 730.2,557.1 735.1,557.1 740.1,557.1 745.0,557.1 750.0,557.1 754.9,557.1 759.8,557.1 764.8,557.1 769.7,557.1 774.7,557.1 779.6,557.1 784.5,557.1 789.5,557.1 794.4,557.1 799.4,557.1 804.3,557.1 809.2,557.1 814.2,557.1 819.1,557.1 824.1,557.1 829.0,557.1 833.9,557.1 838.9,557.1 843.8,557.1 848.8,557.1 853.7,557.1 858.6,557.1 863.6,557.1 868.5,557.1 873.5,557.1 878.4,557.1 883.3,557.1 888.3,557.1 893.2,557.1 898.2,557.1 903.1,557.1 908.0,557.1 913.0,557.1 917.9,557.1 922.9,557.1 927.8,557.1 932.7,557.0 937.7,557.0 942.6,557.0 947.6,557.0 952.5,557.0 957.4,557.0 962.4,557.0 967.3,557.0 972.3,557.0 977.2,557.0 982.1,557.0 987.1,557.0 992.0,557.0 997.0,557.0 1001.9,557.0 1006.8,557.0 1011.8,557.0 1016.7,557.0 1021.7,557.0 1026.6,557.0 1031.5,557.0 1036.5,557.0 1041.4,557.0 1046.4,557.0 1051.3,557.0 1056.2,557.0 1061.2,557.0 1066.1,557.0 1071.1,557.0 1076.0,557.0"/>
<line x1="106" y1="54" x2="134" y2="54" stroke="#2563eb" stroke-width="3"/>
<text x="142" y="59" font-family="sans-serif" font-size="14">block</text>
<line x1="326" y1="54" x2="354" y2="54" stroke="#dc2626" stroke-width="3"/>
<text x="362" y="59" font-family="sans-serif" font-size="14">branch</text>
<line x1="546" y1="54" x2="574" y2="54" stroke="#16a34a" stroke-width="3"/>
<text x="582" y="59" font-family="sans-serif" font-size="14">statement</text>
<line x1="106" y1="78" x2="134" y2="78" stroke="#9333ea" stroke-width="3"/>
<text x="142" y="83" font-family="sans-serif" font-size="14">expression</text>
<line x1="326" y1="78" x2="354" y2="78" stroke="#ea580c" stroke-width="3"/>
<text x="362" y="83" font-family="sans-serif" font-size="14">toggle</text>
<line x1="546" y1="78" x2="574" y2="78" stroke="#0891b2" stroke-width="3"/>
<text x="582" y="83" font-family="sans-serif" font-size="14">statement_dup</text>
<line x1="106" y1="102" x2="134" y2="102" stroke="#4d7c0f" stroke-width="3"/>
<text x="142" y="107" font-family="sans-serif" font-size="14">fsm</text>
<line x1="326" y1="102" x2="354" y2="102" stroke="#be123c" stroke-width="3"/>
<text x="362" y="107" font-family="sans-serif" font-size="14">assertion</text>
<line x1="546" y1="102" x2="574" y2="102" stroke="#475569" stroke-width="3"/>
<text x="582" y="107" font-family="sans-serif" font-size="14">covergroup</text>
</svg>
